<?xml version="1.0" encoding="UTF-8" standalone="no"?>
<svg xmlns="http://www.w3.org/2000/svg" xmlns:xlink="http://www.w3.org/1999/xlink" width="24" height="24" viewBox="0 0 24 24">
  <!-- Background Circle -->
  <circle cx="12" cy="12" r="11" fill="#6750A4" />
  
  <!-- Speech Bubble with Headset -->
  <path d="M6,10 C6,7.8 8.7,6 12,6 C15.3,6 18,7.8 18,10 L18,14 C18,15.7 16.2,17 14,17 L10,17 C7.8,17 6,15.7 6,14 L6,10 Z" fill="#FFFFFF" />
  
  <!-- Headset -->
  <path d="M16,11 L16,14 C16,14.6 15.6,15 15,15 L14,15 L14,12 C14,11.4 14.4,11 15,11 L16,11 Z M8,11 C8.6,11 9,11.4 9,12 L9,15 L8,15 C7.4,15 7,14.6 7,14 L7,11 L8,11 Z" fill="#6750A4" />
  
  <!-- Smile Emoji Face -->
  <circle cx="12" cy="12" r="2" fill="#FFC107" />
  <path d="M11,13 C11.3,13.3 11.6,13.5 12,13.5 C12.4,13.5 12.7,13.3 13,13" stroke="#333333" stroke-width="0.5" fill="none" />
  <circle cx="11" cy="11" r="0.5" fill="#333333" />
  <circle cx="13" cy="11" r="0.5" fill="#333333" />
</svg> 